<?xml version="1.0" encoding="utf-8" ?>
<!-- Generator: Assembly 1.0 - http://assemblyapp.co -->
<svg version="1.1" xmlns="http://www.w3.org/2000/svg" xmlns:xlink="http://www.w3.org/1999/xlink" width="300" height="300" viewBox="0 0 300 300">
	<g id="widget" transform="matrix(1,0,0,1,150,150)">
		<path d="M76.707,367.742 L-61.4673,367.742 C-73.6099,367.742 -83.2403,357.902 -83.2403,345.969 L-83.2403,208.004 C-83.2403,195.861 -73.4006,186.231 -61.4673,186.231 L76.707,186.231 C88.8496,186.231 98.4799,196.071 98.4799,208.004 L98.4799,346.178 C98.2706,358.111 88.6402,367.742 76.707,367.742 Z" fill="#e8ddcb" fill-opacity="1" />
		<path d="M33.325,-34.0788 C51.8387,-52.5925 51.4569,-81.9854 33.325,-100.117 C14.8113,-118.631 -14.5816,-118.249 -32.7135,-100.117 C-36.1491,-96.6818 -40.5389,-89.6199 -40.5389,-89.6199 L-131.962,65.9333 L23.591,-25.49 C26.8356,-28.3529 30.0803,-30.8341 33.325,-34.0788 Z" fill="#cdb380" fill-opacity="1" />
		<path d="M118.2,-52.5074 C136.74,-71.0481 136.358,-100.484 118.2,-118.642 C99.6588,-137.183 70.223,-136.801 52.0646,-118.642 C48.624,-115.202 44.2278,-108.13 44.2278,-108.13 L-47.3291,47.6509 L108.451,-43.906 C111.701,-46.7731 114.95,-49.258 118.2,-52.5074 Z" fill="#016563" fill-opacity="1" />
		<path d="M99.5672,32.2467 C118.108,13.706 117.726,-15.7298 99.5672,-33.8883 C81.0265,-52.429 51.5907,-52.0467 33.4322,-33.8883 C29.9917,-30.4477 25.5954,-23.3755 25.5954,-23.3755 L-65.9614,132.405 L89.819,40.8481 C93.0684,37.981 96.3178,35.4961 99.5672,32.2467 Z" fill="#011534" fill-opacity="1" />
	</g>
</svg>